<svg xmlns="http://www.w3.org/2000/svg" xmlns:xlink="http://www.w3.org/1999/xlink"><symbol id="icon-detective" viewBox="0 0 36 31"><path d="M18 9.758a.706.706 0 00-.703.708c0 .391.315.708.703.708a.706.706 0 00.703-.708.706.706 0 00-.703-.708z"/><path d="M33.89 14.007h-2.735C29.712 9.859 27.62 2.587 23.829.53c-1.896-1.028-3.688-.31-4.362 1.148A1.59 1.59 0 0118 2.625a1.59 1.59 0 01-1.467-.946C15.883.27 14.133-.514 12.304.38 8.453 2.264 6.3 9.828 4.845 14.007H2.11C.944 14.007 0 14.957 0 16.13a2.12 2.12 0 002.11 2.124h31.78c1.166 0 2.11-.95 2.11-2.124a2.12 2.12 0 00-2.11-2.124zM7.316 11.174h7.872a.706.706 0 00.704-.708.706.706 0 00-.704-.708h-7.38c2.12-5.896 4.1-7.609 5.111-8.104 1.104-.54 2.013-.088 2.34.622A2.996 2.996 0 0018 4.041a2.996 2.996 0 002.742-1.765c.337-.73 1.25-1.134 2.42-.5 1.016.552 2.99 2.322 5.03 7.982h-7.38a.706.706 0 00-.703.708c0 .391.315.708.703.708h7.873c.355 1.033.725 2.098.98 2.833H6.335c.255-.733.623-1.796.98-2.833zm26.576 5.665H2.109a.706.706 0 01-.703-.708c0-.391.315-.708.703-.708h31.782c.387 0 .703.317.703.708 0 .39-.315.708-.703.708zM16.594 21.087H5.344a.705.705 0 00-.703.708v2.832C4.64 28.142 7.479 31 10.969 31a6.316 6.316 0 005.915-4.105 2.681 2.681 0 012.232 0A6.315 6.315 0 0025.031 31c3.49 0 6.328-2.859 6.328-6.373v-2.832a.706.706 0 00-.703-.708h-11.25a.706.706 0 00-.703.708v.708h-1.406v-.708a.705.705 0 00-.703-.708zm-5.625 8.497c-2.714 0-4.922-2.224-4.922-4.956v-2.125h9.844v2.125c0 2.74-2.197 4.956-4.922 4.956zm9.14-7.08h9.844v2.123c0 2.733-2.208 4.957-4.922 4.957-2.732 0-4.922-2.223-4.922-4.956v-2.125zm-1.406 1.415v.709c0 .226.013.451.036.675-.488-.09-.99-.09-1.478 0 .023-.224.036-.45.036-.675v-.709h1.406z"/><path d="M10.969 26.752a2.12 2.12 0 01-2.11-2.125.705.705 0 00-.703-.708.705.705 0 00-.703.708c0 1.952 1.577 3.54 3.516 3.54a.706.706 0 00.703-.707.706.706 0 00-.703-.708zM25.031 28.168c1.939 0 3.516-1.589 3.516-3.54a.706.706 0 00-.703-.709.706.706 0 00-.703.708 2.12 2.12 0 01-2.11 2.125.706.706 0 00-.703.708c0 .39.315.708.703.708z"/></symbol><symbol id="icon-hired" viewBox="0 0 35 35"><path d="M31.264 27.893a3.132 3.132 0 00.597-1.842v-4.108a.684.684 0 00-.684-.683h-3.055a2.564 2.564 0 00-2.561 2.561v2.23c0 .687.222 1.323.596 1.841a4.402 4.402 0 00-1.336.445 5.817 5.817 0 00-4.294-2.56l-.021-.005a4.02 4.02 0 001.03-2.69V17.5a.684.684 0 00-.684-.684H16.7a3.24 3.24 0 00-3.236 3.236v3.03a4.02 4.02 0 001.03 2.69l-.021.005a5.816 5.816 0 00-4.294 2.56c-.42-.22-.87-.369-1.337-.445a3.132 3.132 0 00.597-1.84v-4.109a.684.684 0 00-.684-.683H5.7a2.564 2.564 0 00-2.56 2.561v2.23c0 .688.221 1.324.596 1.842A4.464 4.464 0 000 32.291v2.025c0 .378.306.684.684.684h33.632a.684.684 0 00.684-.684v-2.025a4.464 4.464 0 00-3.736-4.398zM4.506 23.821c0-.658.536-1.194 1.194-1.194h2.372v.832c0 .409-.332.74-.74.74H4.506v-.378zm0 1.746h2.826c.26 0 .51-.048.74-.135v.62c0 .982-.8 1.782-1.783 1.782-.983 0-1.783-.8-1.783-1.783v-.484zm2.224 3.634l-.44.44-.442-.44h.882zm2.468 2.363v2.069h-7.83V32.29a3.095 3.095 0 012.588-3.049l1.85 1.85a.684.684 0 00.966 0l1.85-1.85c.327.053.642.158.934.312a5.784 5.784 0 00-.358 2.01zm8.302-5.813a2.672 2.672 0 01-2.668-2.668v-.904h4.085c.453 0 .88-.115 1.252-.319v1.223a2.672 2.672 0 01-2.669 2.669zm1.192 1.368L17.5 28.31l-1.192-1.191h2.384zm-3.86-7.067a1.87 1.87 0 011.868-1.868h3.469v1.377c0 .69-.562 1.251-1.252 1.251H14.83v-.76zm9.603 13.58H10.565v-1.366h4.451a.684.684 0 100-1.368h-4.4a4.455 4.455 0 013.8-3.738l2.6 2.6a.682.682 0 00.967 0l2.601-2.6a4.451 4.451 0 013.85 4.404v2.069zm2.493-9.81c0-.66.536-1.195 1.194-1.195h2.372v.832c0 .409-.332.74-.74.74h-2.826v-.378zm0 1.745h2.825c.26 0 .51-.048.74-.135v.62c0 .982-.799 1.782-1.782 1.782s-1.783-.8-1.783-1.783v-.484zm2.224 3.634l-.441.44-.44-.44h.88zm-3.35 4.432v-2.069c0-.706-.127-1.383-.358-2.01.292-.154.606-.26.933-.312l1.85 1.85a.684.684 0 00.967 0l1.85-1.85a3.095 3.095 0 012.589 3.05v1.34h-7.831zM20.869 4.466a.684.684 0 00-.967 0l-3.354 3.355-1.45-1.45a.684.684 0 10-.967.967l1.933 1.933a.684.684 0 00.967 0l3.838-3.838a.684.684 0 000-.966z"/><path d="M20.295.593a.684.684 0 00-.557 1.248 5.51 5.51 0 013.264 5.028A5.508 5.508 0 0117.5 12.37a5.508 5.508 0 01-5.502-5.501 5.515 5.515 0 013.24-5.017.683.683 0 10-.563-1.246 6.885 6.885 0 00-4.044 6.263 6.877 6.877 0 006.869 6.868 6.876 6.876 0 006.869-6.868A6.88 6.88 0 0020.295.593z"/><path d="M17.524 0H17.5a.684.684 0 000 1.367H17.521A.684.684 0 0017.524 0zM17.983 31.099a.688.688 0 00-.483-.2.689.689 0 00-.483.2.689.689 0 00-.2.483c0 .18.073.356.2.483.127.128.303.2.483.2a.688.688 0 00.684-.683.689.689 0 00-.2-.483z"/></symbol><symbol id="icon-stopwatch" viewBox="0 0 29 35"><path d="M3.188 11.662L1.702 10.19c-.808-.799-.808-2.1 0-2.9.807-.8 2.122-.8 2.929 0l1.587 1.572a14.58 14.58 0 015.52-2.311V4.51h-1.38a.687.687 0 01-.691-.683V2.051C9.667.92 10.596 0 11.738 0h5.524c1.142 0 2.071.92 2.071 2.05v1.778c0 .378-.309.684-.69.684h-1.381V6.55a14.578 14.578 0 015.52 2.31l1.587-1.57c.807-.8 2.121-.8 2.93 0 .807.799.807 2.1 0 2.9l-1.487 1.471A14.252 14.252 0 0129 20.644C29 28.56 22.495 35 14.5 35S0 28.56 0 20.645c0-3.277 1.128-6.442 3.188-8.983zm.467-3.405a.696.696 0 00-.977 0 .68.68 0 000 .967l1.427 1.412c.322-.327.659-.638 1.01-.934l-1.46-1.445zm14.297-6.206a.688.688 0 00-.69-.684h-5.524c-.38 0-.69.307-.69.684v1.094h6.904V2.05zM13.12 4.51v1.843a15.006 15.006 0 012.762 0V4.512h-2.762zm13.203 3.746a.696.696 0 00-.977 0l-1.46 1.445c.351.296.688.607 1.01.934l1.427-1.412a.68.68 0 000-.967zM14.5 33.633c7.234 0 13.119-5.827 13.119-12.989 0-3.159-1.158-6.202-3.262-8.57A13.177 13.177 0 0014.5 7.656a13.18 13.18 0 00-7.936 2.645 13.19 13.19 0 00-1.921 1.771 12.898 12.898 0 00-3.262 8.572c0 7.161 5.885 12.988 13.119 12.988z"/><path d="M14.5 22.695a2.063 2.063 0 01-2.071-2.05c0-.892.577-1.651 1.38-1.934V13.81c0-.378.31-.684.691-.684.382 0 .69.306.69.684v4.902a2.056 2.056 0 011.382 1.934c0 1.13-.93 2.05-2.072 2.05zm0-2.734c-.38 0-.69.306-.69.684 0 .377.31.683.69.683.38 0 .69-.306.69-.683a.688.688 0 00-.69-.684z"/><path d="M7.145 13.433a.54.54 0 01.033-.037l.04-.037a10.417 10.417 0 014.353-2.55.682.682 0 11.391 1.311 9.028 9.028 0 00-3.298 1.78l.466.46c.27.268.27.7 0 .968a.692.692 0 01-.977 0l-.467-.462A8.758 8.758 0 005.55 19.96h.664c.382 0 .69.306.69.684 0 .377-.308.683-.69.683H5.55a8.757 8.757 0 002.136 5.096l.467-.463a.696.696 0 01.977 0c.27.267.27.7 0 .967l-.467.462a8.941 8.941 0 005.147 2.115v-.657c0-.378.309-.684.69-.684.381 0 .69.306.69.684v.657a8.939 8.939 0 005.147-2.115l-.467-.462a.679.679 0 010-.967.696.696 0 01.977 0l.467.463a8.758 8.758 0 002.136-5.096h-.664a.687.687 0 01-.69-.683c0-.378.308-.684.69-.684h.664a8.758 8.758 0 00-2.136-5.095l-.467.462a.692.692 0 01-.977 0 .68.68 0 010-.967l.466-.461a9.024 9.024 0 00-3.298-1.78.682.682 0 01-.466-.85.692.692 0 01.857-.462 10.414 10.414 0 014.351 2.55.672.672 0 01.042.037l.033.037a10.132 10.132 0 013.002 7.213c0 2.718-1.066 5.277-3.002 7.211a.555.555 0 01-.033.037c-.012.012-.024.023-.037.033a10.34 10.34 0 01-7.285 2.972c-2.746 0-5.33-1.055-7.284-2.971l-.038-.034c-.012-.011-.022-.024-.033-.036a10.132 10.132 0 01-3.002-7.212c0-2.719 1.066-5.278 3.002-7.212z"/><path d="M14.5 11.758a.687.687 0 01-.69-.684c0-.377.309-.683.69-.683.381 0 .69.306.69.683 0 .377-.309.684-.69.684z"/></symbol><symbol id="icon-tag" viewBox="0 0 35 35"><path d="M11.07 8.585a.689.689 0 00-.483-.2.689.689 0 00-.483.2.69.69 0 00-.2.483c0 .18.073.356.2.483.127.128.304.2.483.2.18 0 .357-.072.484-.2a.69.69 0 00.2-.483.689.689 0 00-.2-.483z"/><path d="M34.8 2.859l-.845-.847.845-.845A.684.684 0 0033.833.2l-.844.845-.833-.834a.683.683 0 00-.484-.2L20.102.003H20.1c-.913 0-1.772.356-2.418 1.002L11.908 6.78a.684.684 0 00.967.967l5.774-5.774A2.04 2.04 0 0120.1 1.37h.002l11.286.007.634.634-2.537 2.537a2.805 2.805 0 00-3.419.422 2.783 2.783 0 00-.82 1.98c0 .748.291 1.452.82 1.98a2.792 2.792 0 001.98.82c.717 0 1.434-.273 1.98-.82a2.806 2.806 0 00.425-3.415l2.537-2.537.645.646-.007 11.273a2.04 2.04 0 01-.601 1.451L16.344 33.033a2.04 2.04 0 01-1.452.601 2.04 2.04 0 01-1.452-.601L1.97 21.559a2.04 2.04 0 01-.602-1.452c0-.548.214-1.064.602-1.452l7.368-7.37a.684.684 0 00-.966-.966L1 17.689A3.399 3.399 0 000 20.106c0 .914.356 1.773 1.002 2.42L12.473 34a3.41 3.41 0 002.419 1 3.41 3.41 0 002.419-1l16.68-16.684a3.4 3.4 0 001.003-2.417L35 3.342a.683.683 0 00-.2-.483zm-5.74 5.106c-.271.27-.631.42-1.014.42s-.742-.15-1.013-.42a1.435 1.435 0 011.013-2.447c.139 0 .277.02.41.06l-.789.789a.684.684 0 00.967.967l.787-.787a1.434 1.434 0 01-.361 1.418z"/><path d="M29.2 13.764l-7.966-7.967a2.71 2.71 0 00-3.828 0L4.8 18.406a2.69 2.69 0 00-.793 1.914c0 .723.282 1.403.793 1.914l7.967 7.968c.511.51 1.19.793 1.914.793.723 0 1.402-.282 1.913-.793L29.2 17.592a2.69 2.69 0 00.793-1.913 2.69 2.69 0 00-.793-1.915zm-.966 2.862L15.627 29.235a1.33 1.33 0 01-.947.392 1.33 1.33 0 01-.947-.392l-7.967-7.968a1.33 1.33 0 01-.392-.947c0-.358.139-.695.392-.948L18.373 6.764c.261-.262.604-.392.947-.392.343 0 .686.13.947.392l7.967 7.967c.253.253.392.59.392.948 0 .357-.14.694-.392.947z"/><path d="M22.29 13.677a.684.684 0 00-.966-.967l-.394.394c-1.051-.65-2.4-.563-3.252.29a2.48 2.48 0 00-.716 1.9 2.876 2.876 0 00.853 1.892c.55.55.611 1.384.137 1.859-.475.474-1.309.413-1.859-.137s-.61-1.384-.136-1.859a.684.684 0 00-.967-.967c-.853.853-.94 2.202-.29 3.253l-.468.467a.684.684 0 00.968.967l.467-.467c.46.283.975.427 1.482.427.652 0 1.29-.238 1.77-.717 1.007-1.008.946-2.709-.137-3.792a1.512 1.512 0 01-.454-.991 1.13 1.13 0 01.317-.868c.474-.475 1.308-.413 1.858.137s.611 1.384.137 1.858a.684.684 0 00.966.967c.853-.852.94-2.201.29-3.252l.394-.394zM15.372 25.012L11.86 21.5a.684.684 0 00-.967.967l3.511 3.512a.682.682 0 00.967 0 .684.684 0 000-.967zM9.988 19.627a.688.688 0 00-.483-.2.69.69 0 00-.483.2.69.69 0 00-.2.484c0 .18.072.356.2.483.127.127.303.2.483.2a.688.688 0 00.684-.683.689.689 0 00-.2-.484z"/></symbol></svg>